<svg xmlns="http://www.w3.org/2000/svg" viewBox="0 0 446.4 267.24"><defs><style>.cls-1{fill:#0f0e0e;fill-rule:evenodd}</style></defs><title>rezart_logo</title><g id="Слой_2" data-name="Слой 2"><path class="cls-1" d="M442.14 240.64L302 .56a1.51 1.51 0 0 0-2.33 0C298.37 1.81 170.74 221 170.74 221l-30.56-51.21.33-1.33s54.81-16.46 54.81-76.13-59.62-76.81-72.74-76.81H0l20.6 37.24h93.34s47.5-3.56 47.5 40.57-36.19 44.89-42.52 44.89H80.39l70.09 117.71s6.49 11.31 16.94 11.31 14.64-5.43 18.93-11.64S300.63 64.4 300.63 64.4l84.71 141.65L299 156.18 331.19 212l89 51.21s14.13 5.79 22.59-2.33-.64-20.24-.64-20.24zM37.2 158.17L1.33 96.32v149s-.14 14.63 18.27 14.63 17.94-15.3 17.94-15.3z" id="Слой_1-2" data-name="Слой 1"/></g></svg>