<svg xmlns="http://www.w3.org/2000/svg" width="67" height="62" viewBox="0 0 67 62"><path d="M50.51 34.03a.984.984 0 0 1 .4-1.35c.49-.26 1.09-.08 1.36.4 0 .01 11.66 21.45 12.43 22.97.44.88.95 1.8 1.41 2.64.17.3.32.58.47.85.18.33.3.65.35.93l-1.98.34s-.02-.11-.13-.32l-.46-.83c-.47-.86-.99-1.81-1.45-2.71-.59-1.18-8.37-15.5-12.4-22.91v-.01m15.11 25.82l.39 1.96c-.15.03-.32.05-.5.05-1.6 0-19.66.04-36.04.08-13.61.03-26.06.06-26.98.06-.74 0-1.32-.1-1.73-.28l.83-1.82s.24.1.9.1c.92 0 13.37-.03 26.98-.06 16.38-.04 34.44-.08 36.04-.08.04 0 .08 0 .11-.01M2.03 60.92L.31 59.9l.31-.62c.11-.23.24-.48.4-.79C1.6 57.37 8 45.57 14.81 33.02c7.59-14 15.7-28.93 16.81-31.05.42-.8.79-1.35 1.15-1.66l1.32 1.5c-.03.02-.25.23-.7 1.09-1.12 2.13-9.1 16.84-16.82 31.08C9.78 46.49 3.36 58.31 2.79 59.41c-.15.29-.27.54-.38.75-.12.25-.23.47-.38.76m30.8-59.1L34.14.3c.36.32.74.87 1.17 1.67.68 1.27 12.18 22.35 12.18 22.35.27.49.09 1.09-.4 1.36-.48.26-1.09.08-1.36-.4-.46-.86-11.51-21.1-12.19-22.37-.46-.87-.68-1.07-.71-1.09m33.18 59.99l-.23-1.14 1.15-.2c.11.69-.17 1.2-.92 1.34zm-1.06-1c-.05-.34.33-.89.67-.96l.16.82-.83.14zm-64.19.91c-.62-.28-.85-.77-.62-1.44l1.1.37-.48 1.07zm1.27-.8l-.79-.27.35-.75c.3.13.55.71.44 1.02zM33.46 2c-.25 0-.49-.06-.63-.18l.63-.73.63.72c-.15.13-.39.19-.63.19zm0-.91l-.69-.78c.23-.21.46-.31.69-.31.22 0 .45.1.68.3l-.68.79z" fill="#E12F03"/></svg>