<?xml version="1.0" encoding="utf-8"?>
<svg xmlns="http://www.w3.org/2000/svg"
	xmlns:xlink="http://www.w3.org/1999/xlink"
	width="67px" height="62px" viewBox="0 0 67 62">
<path fillRule="evenodd" d="M 50.51 34.03C 50.24 33.55 50.42 32.94 50.91 32.68 51.4 32.42 52 32.6 52.27 33.08 52.27 33.09 63.93 54.53 64.7 56.05 65.14 56.93 65.65 57.85 66.11 58.7 66.28 58.99 66.43 59.27 66.58 59.54 66.76 59.87 66.88 60.19 66.93 60.47 66.93 60.47 64.95 60.81 64.95 60.81 64.95 60.81 64.93 60.7 64.82 60.49 64.82 60.49 64.36 59.66 64.36 59.66 63.89 58.8 63.37 57.85 62.91 56.95 62.32 55.77 54.54 41.45 50.51 34.04 50.51 34.04 50.51 34.03 50.51 34.03M 65.62 59.85C 65.62 59.85 66.01 61.81 66.01 61.81 65.86 61.84 65.69 61.86 65.51 61.86 63.91 61.86 45.85 61.9 29.47 61.94 15.86 61.97 3.41 62 2.49 62 1.75 62 1.17 61.9 0.76 61.72 0.76 61.72 1.59 59.9 1.59 59.9 1.59 59.9 1.83 60 2.49 60 3.41 60 15.86 59.97 29.47 59.94 45.85 59.9 63.91 59.86 65.51 59.86 65.55 59.86 65.59 59.86 65.62 59.85M 2.03 60.92C 2.03 60.92 0.31 59.9 0.31 59.9 0.41 59.7 0.51 59.5 0.62 59.28 0.73 59.05 0.86 58.8 1.02 58.49 1.6 57.37 7.98 45.61 14.78 33.08 22.38 19.06 30.5 4.09 31.62 1.97 32.04 1.17 32.41 0.62 32.77 0.31 32.77 0.31 34.09 1.81 34.09 1.81 34.06 1.83 33.84 2.04 33.39 2.9 32.27 5.03 24.27 19.77 16.54 34.03 9.76 46.52 3.36 58.31 2.79 59.41 2.64 59.71 2.52 59.95 2.41 60.16 2.29 60.41 2.18 60.63 2.03 60.92M 32.83 1.82C 32.83 1.82 34.14 0.3 34.14 0.3 34.5 0.62 34.88 1.17 35.31 1.97 35.99 3.24 47.49 24.32 47.49 24.32 47.76 24.81 47.58 25.41 47.09 25.68 46.61 25.94 46 25.76 45.73 25.28 45.27 24.42 34.22 4.18 33.54 2.91 33.08 2.04 32.86 1.84 32.83 1.82M 66.01 61.81C 66.01 61.81 65.78 60.67 65.78 60.67 65.78 60.67 66.93 60.47 66.93 60.47 67.04 61.16 66.76 61.67 66.01 61.81 66.01 61.81 66.01 61.81 66.01 61.81ZM 64.95 60.81C 64.9 60.47 65.28 59.92 65.62 59.85 65.62 59.85 65.78 60.67 65.78 60.67 65.78 60.67 64.95 60.81 64.95 60.81 64.95 60.81 64.95 60.81 64.95 60.81ZM 0.76 61.72C 0.14 61.44-0.09 60.95 0.14 60.28 0.14 60.28 1.24 60.65 1.24 60.65 1.24 60.65 0.76 61.72 0.76 61.72 0.76 61.72 0.76 61.72 0.76 61.72ZM 2.03 60.92C 2.03 60.92 1.24 60.65 1.24 60.65 1.24 60.65 1.59 59.9 1.59 59.9 1.89 60.03 2.14 60.61 2.03 60.92 2.03 60.92 2.03 60.92 2.03 60.92ZM 33.46 2C 33.22 2 32.98 1.94 32.83 1.82 32.83 1.82 33.46 1.09 33.46 1.09 33.46 1.09 34.09 1.81 34.09 1.81 33.94 1.94 33.7 2 33.46 2 33.46 2 33.46 2 33.46 2ZM 33.46 1.09C 33.46 1.09 32.77 0.31 32.77 0.31 33 0.1 33.23-0 33.46-0 33.68-0 33.91 0.1 34.14 0.3 34.14 0.3 33.46 1.09 33.46 1.09 33.46 1.09 33.46 1.09 33.46 1.09Z" fill="rgb(211,211,211)"/></svg>